# xmcd CD database file
#
# Track frame offsets:
#	150
#	22395
#	46670
#
# Disc length: 916 seconds
#
# Revision: 7
# Processed by: cddbd v1.5.1PL0 Copyright (c) Steve Scherf et al.
# Submitted via: CDex 1.51
#
DISCID=1f039203
DTITLE=今野　登茂子 - 愛してる (Single)
DYEAR=1996
DGENRE=Pop
TTITLE0=愛してる
TTITLE1=She
TTITLE2=愛してる（オリジナル・カラオケ）
EXTD=YEAR: 1996
EXTT0=
EXTT1=
EXTT2=
PLAYORDER=
